# xmcd
#
# Track frame offsets:
#	150
#	12840
#	28421
#	46387
#	59030
#	77646
#	92034
#	109214
#	128389
#	144388
#	163389
#
# Disc length: 2380 seconds
#
# Revision: 0
# Processed by: cddbd v1.5.2PL0 Copyright (c) Steve Scherf et al.
# Submitted via: dBpowerAMP V4.0
#
DISCID=94094a0b
DTITLE=La Mississippi - Bufalo
DYEAR=2011
DGENRE=Blues
TTITLE0=01 El Titular
TTITLE1=02 Salvavidas
TTITLE2=03 Bufalo
TTITLE3=04 Ermitaño
TTITLE4=05 La Maquina del Amor
TTITLE5=06 No Confio
TTITLE6=07 Rara
TTITLE7=08 Un Dia Mas que se Va
TTITLE8=09 Hells Bells
TTITLE9=10 La Ciudad
TTITLE10=11 Solo un Paso
EXTD=
EXTT0=
EXTT1=
EXTT2=
EXTT3=
EXTT4=
EXTT5=
EXTT6=
EXTT7=
EXTT8=
EXTT9=
EXTT10=
PLAYORDER=
